<svg width="125" height="125" viewBox="0 0 125 125" fill="none" xmlns="http://www.w3.org/2000/svg">
<path d="M95.8542 0H0V124.016H124.016V0H95.8542ZM115.75 8.26562V19.3438C110.375 17.8854 106.13 13.6406 104.667 8.26562H115.75ZM96.2188 8.26562C97.9479 18.2083 105.807 26.0625 115.75 27.7969V38.2448C100.099 36.3594 87.6562 23.9115 85.7708 8.26562H96.2188ZM77.4583 8.26562C79.4115 28.474 95.5365 44.599 115.75 46.5521V56.9271C110.839 56.5521 106.036 55.5 101.427 53.7812C95.0417 51.4115 89.2344 47.8646 84.1771 43.2396C74.2396 34.1562 68.1406 21.5885 67.0885 8.26562H77.4583ZM28.1615 60.4583C31.7917 58.9115 35.2448 57.026 38.4948 54.8125V115.75H28.1615V60.4583ZM46.7604 48.0729C53.7083 41.3281 58.901 33.0625 62.0104 24.0417C65.1198 33.0625 70.3125 41.3281 77.2604 48.0729V115.75H46.7604V48.0729ZM85.5208 54.8125C88.776 57.026 92.224 58.9115 95.8542 60.4583V115.75H85.5208V54.8125ZM56.9271 8.26562C55.8802 21.5885 49.7812 34.1562 39.8385 43.2396C34.7812 47.8646 28.9792 51.4115 22.5938 53.7812C17.9792 55.5 13.1771 56.5521 8.26562 56.9271V46.5521C28.4792 44.599 44.6094 28.474 46.5625 8.26562H56.9271ZM38.2448 8.26562C36.3646 23.9167 23.9167 36.3594 8.26562 38.2448V27.7969C18.2083 26.0625 26.0677 18.2083 27.7969 8.26562H38.2448ZM8.26562 8.26562H19.349C17.8854 13.6406 13.6406 17.8854 8.26562 19.3438V8.26562ZM8.26562 65.2135C12.2083 64.9531 16.099 64.3073 19.901 63.3021V115.75H8.26562V65.2135ZM104.12 115.75V63.3021C107.917 64.3073 111.807 64.9531 115.75 65.2135V115.75H104.12Z" fill="#CFB034"/>
</svg>
