<svg width="50" height="50" viewBox="0 0 50 50" fill="none" xmlns="http://www.w3.org/2000/svg">
<g clip-path="url(#clip0_566_67)">
<rect width="50" height="50" rx="11" fill="url(#paint0_linear_566_67)"/>
<path fill-rule="evenodd" clip-rule="evenodd" d="M37.5822 12.2226C34.2175 8.85788 29.7397 7 24.9709 7C15.1421 7 7.15411 14.9966 7.14555 24.8168C7.14555 27.9589 7.96747 31.024 9.52569 33.7209L7 42.9589L16.4521 40.4846C19.0548 41.9058 21.9829 42.6507 24.9709 42.6507H24.9795C34.7997 42.6507 42.7962 34.6541 42.8048 24.8339C42.8048 20.0651 40.9469 15.5873 37.5822 12.2226ZM24.9795 39.637C22.3168 39.637 19.7055 38.9178 17.4366 37.5736L16.8973 37.2569L11.2894 38.7295L12.7877 33.2671L12.4366 32.7106C10.9555 30.3562 10.1678 27.625 10.1678 24.8254C10.1678 16.6575 16.8202 10.0137 24.988 10.0137C28.9435 10.0137 32.6678 11.5548 35.4589 14.3545C38.2586 17.1541 39.7997 20.8784 39.7911 24.8339C39.7825 32.9932 33.1387 39.637 24.9795 39.637ZM33.1045 28.5497C32.6593 28.3271 30.4675 27.2483 30.0651 27.1028C29.6541 26.9572 29.363 26.8801 29.0634 27.3254C28.7637 27.7706 27.9161 28.7723 27.6507 29.0719C27.3938 29.3716 27.1284 29.4058 26.6832 29.1832C26.238 28.9606 24.7997 28.4897 23.1045 26.9743C21.7774 25.7928 20.887 24.3373 20.6301 23.8921C20.3733 23.4469 20.6045 23.2072 20.8271 22.9846C21.024 22.7877 21.2723 22.4623 21.4949 22.2055C21.7175 21.9486 21.7945 21.7603 21.9401 21.4606C22.0856 21.161 22.0171 20.9041 21.9058 20.6815C21.7945 20.4589 20.9041 18.2671 20.536 17.3767C20.1764 16.512 19.8082 16.6233 19.5343 16.6147C19.2774 16.5976 18.9777 16.5976 18.6781 16.5976C18.3784 16.5976 17.899 16.7089 17.488 17.1541C17.0771 17.5993 15.9298 18.6781 15.9298 20.8699C15.9298 23.0617 17.5223 25.1764 17.7449 25.476C17.9675 25.7757 20.887 30.2706 25.3562 32.1969C26.4178 32.6593 27.2483 32.9332 27.899 33.1387C28.9692 33.4812 29.9367 33.4298 30.7072 33.3185C31.5634 33.1901 33.3442 32.2397 33.7123 31.2038C34.0805 30.1678 34.0805 29.2688 33.9692 29.0891C33.8408 28.8836 33.5497 28.7723 33.1045 28.5497Z" fill="white"/>
</g>
<defs>
<linearGradient id="paint0_linear_566_67" x1="25" y1="0" x2="25" y2="50" gradientUnits="userSpaceOnUse">
<stop stop-color="#60FD7C"/>
<stop offset="1" stop-color="#26D044"/>
</linearGradient>
<clipPath id="clip0_566_67">
<rect width="50" height="50" fill="white"/>
</clipPath>
</defs>
</svg>
